<svg width="260" height="416" viewBox="0 0 260 416" fill="none" xmlns="http://www.w3.org/2000/svg">
<path d="M229.938 208H200.786C197.038 208 194 211.278 194 215.322V251.894C194 255.938 197.038 259.217 200.786 259.217H229.938C233.686 259.217 236.725 255.938 236.725 251.894V215.322C236.725 211.278 233.686 208 229.938 208Z" fill="#6C63FF"/>
<path d="M253.172 0H5.88564C2.6351 0 0 2.8431 0 6.35024V409.254C0 412.761 2.6351 415.604 5.88564 415.604H253.172C256.423 415.604 259.058 412.761 259.058 409.254V6.35024C259.058 2.8431 256.423 0 253.172 0Z" fill="#A7A7A7"/>
<path d="M230.554 37.3174H31.2179C27.8346 37.3174 25.092 40.2765 25.092 43.9268V109.73C25.092 113.38 27.8346 116.339 31.2179 116.339H230.554C233.938 116.339 236.68 113.38 236.68 109.73V43.9268C236.68 40.2765 233.938 37.3174 230.554 37.3174Z" fill="#01050C"/>
<path d="M67.6602 152.33H37.7041C34.1021 152.33 31.1821 155.447 31.1821 159.292V196.368C31.1821 200.213 34.1021 203.33 37.7041 203.33H67.6602C71.2622 203.33 74.1821 200.213 74.1821 196.368V159.292C74.1821 155.447 71.2622 152.33 67.6602 152.33Z" fill="#5C0606"/>
<path d="M119.66 152.33H89.7041C86.1021 152.33 83.1821 155.447 83.1821 159.292V196.368C83.1821 200.213 86.1021 203.33 89.7041 203.33H119.66C123.262 203.33 126.182 200.213 126.182 196.368V159.292C126.182 155.447 123.262 152.33 119.66 152.33Z" fill="#5C0606"/>z
<path d="M171.66 152.33H141.704C138.102 152.33 135.182 155.447 135.182 159.292V196.368C135.182 200.213 138.102 203.33 141.704 203.33H171.66C175.262 203.33 178.182 200.213 178.182 196.368V159.292C178.182 155.447 175.262 152.33 171.66 152.33Z" fill="#5C0606"/>
<path opacity="0.1" d="M212.586 152.33H204.503C194.937 152.33 187.182 160.697 187.182 171.018V184.859C187.182 195.18 194.937 203.546 204.503 203.546H212.586C222.152 203.546 229.907 195.18 229.907 184.859V171.018C229.907 160.697 222.152 152.33 212.586 152.33Z" fill="black"/>
<path d="M224.098 151.46H194.334C190.755 151.46 187.854 154.59 187.854 158.452V195.685C187.854 199.546 190.755 202.676 194.334 202.676H224.098C227.677 202.676 230.579 199.546 230.579 195.685V158.452C230.579 154.59 227.677 151.46 224.098 151.46Z" fill="#6C63FF"/>
<path d="M67.6602 211.33H37.7041C34.1021 211.33 31.1821 214.447 31.1821 218.292V255.368C31.1821 259.213 34.1021 262.33 37.7041 262.33H67.6602C71.2622 262.33 74.1821 259.213 74.1821 255.368V218.292C74.1821 214.447 71.2622 211.33 67.6602 211.33Z" fill="#5C0606"/>
<path d="M119.66 211.33H89.7041C86.1021 211.33 83.1821 214.447 83.1821 218.292V255.368C83.1821 259.213 86.1021 262.33 89.7041 262.33H119.66C123.262 262.33 126.182 259.213 126.182 255.368V218.292C126.182 214.447 123.262 211.33 119.66 211.33Z" fill="#5C0606"/>
<path d="M171.66 211.33H141.704C138.102 211.33 135.182 214.447 135.182 218.292V255.368C135.182 259.213 138.102 262.33 141.704 262.33H171.66C175.262 262.33 178.182 259.213 178.182 255.368V218.292C178.182 214.447 175.262 211.33 171.66 211.33Z" fill="#5C0606"/>
<path d="M67.4268 270.33H37.6623C34.0834 270.33 31.1821 273.46 31.1821 277.322V314.555C31.1821 318.416 34.0834 321.546 37.6623 321.546H67.4268C71.0057 321.546 73.907 318.416 73.907 314.555V277.322C73.907 273.46 71.0057 270.33 67.4268 270.33Z" fill="#5C0606"/>
<path d="M119.427 270.33H89.6623C86.0834 270.33 83.1821 273.46 83.1821 277.322V314.555C83.1821 318.416 86.0834 321.546 89.6623 321.546H119.427C123.006 321.546 125.907 318.416 125.907 314.555V277.322C125.907 273.46 123.006 270.33 119.427 270.33Z" fill="#5C0606"/>
<path d="M171.427 270.33H141.662C138.083 270.33 135.182 273.46 135.182 277.322V314.555C135.182 318.416 138.083 321.546 141.662 321.546H171.427C175.006 321.546 177.907 318.416 177.907 314.555V277.322C177.907 273.46 175.006 270.33 171.427 270.33Z" fill="#5C0606"/>
<path d="M171.878 332.189H142.114C138.535 332.189 135.634 335.319 135.634 339.181V376.414C135.634 380.275 138.535 383.406 142.114 383.406H171.878C175.457 383.406 178.359 380.275 178.359 376.414V339.181C178.359 335.319 175.457 332.189 171.878 332.189Z" fill="#5C0606"/>
<path d="M223.938 211H194.786C191.038 211 188 214.278 188 218.322V254.894C188 258.938 191.038 262.217 194.786 262.217H223.938C227.686 262.217 230.725 258.938 230.725 254.894V218.322C230.725 214.278 227.686 211 223.938 211Z" fill="#6C63FF"/>
<path d="M120.109 332.189H37.2236C33.8935 332.189 31.1938 335.102 31.1938 338.695V376.9C31.1938 380.493 33.8935 383.406 37.2236 383.406H120.109C123.439 383.406 126.139 380.493 126.139 376.9V338.695C126.139 335.102 123.439 332.189 120.109 332.189Z" fill="black"/>
<path d="M227.788 270H195.003C191.135 270 188 273.383 188 277.555V375.861C188 380.034 191.135 383.417 195.003 383.417H227.788C231.656 383.417 234.791 380.034 234.791 375.861V277.555C234.791 273.383 231.656 270 227.788 270Z" fill="black"/>
<path d="M227.179 102.537H208.477V104.721H227.179V102.537Z" fill="white"/>
<path d="M199.799 102.537H181.097V104.721H199.799V102.537Z" fill="white"/>
<path d="M172.413 102.537H153.711V104.721H172.413V102.537Z" fill="white"/>
<path d="M145.033 102.537H126.331V104.721H145.033V102.537Z" fill="white"/>
</svg>
